<?xml version="1.0" encoding="UTF-8"?><svg id="a" xmlns="http://www.w3.org/2000/svg" width="700" height="164.5" viewBox="0 0 700 164.5"><defs><style>.b{fill:#fff;stroke-width:0px;}</style></defs><path class="b" d="m0,52.86c0-15.53,0-31.07,0-46.6C0,1.71.37,1.33,4.81,1.33c27.11,0,54.22,0,81.34,0,4.53,0,4.83.31,4.84,4.88,0,2.72-.08,5.45.02,8.16.27,7.39,5.76,12.69,13.21,12.8,2.62.04,5.24,0,7.86.01,4.55.02,4.92.36,4.92,4.82,0,17.57,0,35.15,0,52.72,0,5.33.02,10.66,0,15.99-.02,3.63-.5,4.1-4.2,4.12-5.7.03-11.39.02-17.09,0-4.22-.01-4.7-.49-4.7-4.72-.02-21.32-.02-42.63-.02-63.95,0-7.13-1.9-8.98-9.18-8.99-.57,0-1.14,0-1.71,0-6.33.03-8.48,2.09-8.49,8.31-.02,12.36,0,24.72,0,37.08q0,6.33-6.17,6.33c-5.13,0-10.25.01-15.38,0-4-.01-4.46-.46-4.46-4.56-.02-12.7,0-25.4-.01-38.1,0-7.05-2.04-9.04-9.21-9.05-.8,0-1.59,0-2.39,0-5.55.06-7.94,2.39-7.95,7.86-.03,9.07,0,18.14,0,27.21,0,12.7,0,25.4,0,38.1,0,4.03-.45,4.47-4.55,4.48-5.7.02-11.39.03-17.09,0-3.8-.02-4.34-.56-4.34-4.36-.01-15.87,0-31.75,0-47.62Z"/><path class="b" d="m235.32,53.22c-.07,29.46-23.93,53.04-53.54,52.91-29.33-.13-53.17-24-53.07-53.15C128.81,23.67,152.92-.14,182.36,0c29.35.14,53.03,23.94,52.96,53.22Zm-27.32-.21c-.04-14.34-11.73-25.9-26.11-25.8-14.17.09-25.79,11.69-25.86,25.8-.07,14.25,11.66,25.92,26.03,25.92,14.45,0,25.98-11.52,25.94-25.92Z"/><path class="b" d="m466.76,66.01c0,11.34,0,22.67,0,34.01,0,4.35-.49,4.82-4.95,4.83-5.69.01-11.39.03-17.08-.01-3.38-.03-3.93-.6-3.96-4.01-.04-4.65.03-9.3-.02-13.94-.06-5.5-2.46-7.89-7.95-7.91-8.43-.04-16.85,0-25.28-.02-3.99,0-4.49-.51-4.51-4.53-.03-5.78-.05-11.56.01-17.34.04-3.29.76-3.98,4.08-4,8.43-.04,16.85,0,25.28-.02,6.19-.01,8.35-2.19,8.38-8.45.02-3.51.1-7.03-.04-10.54-.15-3.86-2.36-6.69-5.88-6.75-8.3-.13-16.65-.91-24.89.44-11.82,1.94-20.77,11.84-21.05,23.78-.37,15.86-.15,31.73-.18,47.6-.01,5.55-.15,5.68-5.79,5.69-5.47,0-10.93-.07-16.4.03-2.8.05-3.87-1.17-3.86-3.88.06-16.55-.35-33.11.18-49.64.9-28.34,23.69-49.95,52.11-50.02,7.17-.02,14.35-.02,21.52,0,3.47.01,4.2.74,4.26,4.16.05,2.72-.02,5.44.02,8.16.14,8.15,5.33,13.35,13.47,13.5,2.39.04,4.78.02,7.17.03,4.96.01,5.35.4,5.35,5.5,0,11.11,0,22.22,0,33.33Z"/><path class="b" d="m670.23,1.33c8.32,0,16.63,0,24.95,0,4.44,0,4.81.39,4.82,4.93,0,5.33,0,10.66,0,15.99,0,4.66-.29,4.93-5.13,4.93-15.72,0-31.44-.04-47.16.02-11.04.05-20.11,6.23-23.88,16.09-3.97,10.4-1.35,21.67,6.72,28.95,2.24,2.02,4.77,3.43,7.73,4.11,5.22,1.2,9.45-1.78,9.68-7.09.17-3.96.03-7.94.05-11.9.03-3.6.63-4.28,4.08-4.29,14.58-.03,29.16-.03,43.75,0,3.45,0,4.14.73,4.14,4.25.02,14.4.02,28.8,0,43.2,0,3.69-.53,4.25-4.06,4.27-6.04.03-12.08-.06-18.11.04-2.8.04-3.89-1.13-3.84-3.87.1-4.87.07-9.75.01-14.63-.06-4.81-2.56-7.29-7.41-7.37-3.76-.06-7.52-.07-11.28,0-4.84.09-7.23,2.56-7.28,7.47-.04,4.42,0,8.84-.01,13.27,0,4.81-.76,5.46-5.68,4.91-22.46-2.52-40.91-19.05-45.29-41.14-5.21-26.29,9.05-52.84,37.12-60.41,4.98-1.34,10.06-1.79,15.21-1.74,6.95.07,13.9.02,20.85.02Z"/><path class="b" d="m480.02,53.22c0-15.64,0-31.29,0-46.93,0-4.44.51-4.96,4.83-4.96,22.89,0,45.78,0,68.67,0,4.01,0,4.5.51,4.54,4.52.03,2.83-.1,5.67.06,8.5.41,7.73,5.72,12.72,13.51,12.82,2.73.04,5.47-.02,8.2.01,3.56.04,4.24.65,4.26,4.15.05,7.14.02,14.28.02,21.42,0,15.76,0,31.51,0,47.27,0,4.38-.46,4.8-4.93,4.81-5.47.01-10.93.02-16.4,0-4.24-.02-4.69-.44-4.69-4.72-.01-21.31,0-42.62-.02-63.93,0-1.58.07-3.26-.44-4.71-1-2.86-3.31-4.27-6.34-4.27-12.75-.03-25.51-.08-38.26.02-4.61.03-6.94,2.75-6.97,7.83-.05,10.43-.02,20.86-.02,31.29,0,11.34.01,22.67,0,34.01,0,4.09-.41,4.48-4.52,4.5-5.58.02-11.16.02-16.74,0-4.24-.01-4.74-.49-4.74-4.69-.01-15.64,0-31.29,0-46.93Z"/><path class="b" d="m350.01,40.24c0,11.45.01,22.9,0,34.34,0,3.81-.53,4.33-4.32,4.37-2.85.03-5.7-.06-8.54.02-7.64.23-12.99,5.65-13.12,13.25-.05,3.06-.03,6.12,0,9.18.02,1.98-.72,3.45-2.89,3.39-11.69-.34-23.48,1.31-35.06-1.36-21.63-4.99-37.72-23.31-39.88-45.2-.43-4.41.25-5.16,4.78-5.16,5.58-.01,11.16.07,16.74-.03,2.7-.05,4.05.78,4.58,3.69,2.55,13.9,12.57,22.13,26.77,22.22,5.81.04,11.62.04,17.42,0,5.13-.04,7.49-2.4,7.51-7.54.03-13.83-.04-27.66.07-41.48.02-2.32-.78-2.78-2.92-2.77-14.8.08-29.61.05-44.41.04-4.34,0-4.7-.36-4.71-4.64-.01-5.78.06-11.56-.03-17.34-.04-2.73,1.05-3.9,3.83-3.89,23.46.04,46.92.01,70.38.04,3.17,0,3.79.73,3.79,4.21.02,11.56,0,23.12,0,34.68Z"/><path class="b" d="m450.13,129.18c9.87.02,17.66,7.89,17.59,17.77-.07,9.63-7.92,17.48-17.56,17.54-9.72.06-17.83-7.98-17.83-17.69,0-9.79,7.94-17.65,17.8-17.63Zm-7.9,17.76c.07,4.34,3.52,7.68,7.91,7.64,4.34-.04,7.82-3.5,7.83-7.78.01-4.34-3.82-8.05-8.14-7.89-4.31.16-7.67,3.7-7.6,8.03Z"/><path class="b" d="m342.7,146.58c0-4.41.08-8.82-.04-13.23-.07-2.41.64-3.56,3.28-3.41,4.53.26,9.07-.24,13.6.54,9.06,1.56,14.48,7.82,14.25,16.61-.23,8.72-6,14.98-14.93,16.12-4.52.57-9.08.25-13.62.33-1.95.04-2.57-.91-2.55-2.71.05-4.75.02-9.5.01-14.25Zm9.51-.03h0c0,2.03,0,4.06,0,6.1,0,1.24.34,2.13,1.82,2.37,4.51.71,8.95-2.31,9.57-6.62.78-5.46-1.79-8.99-7-9.62-3.99-.48-4.37-.16-4.4,3.71,0,1.35,0,2.71,0,4.06Z"/><path class="b" d="m288.29,142.18c0-3.06.08-6.12-.03-9.17-.07-2.1.55-3.1,2.88-3.06,8.05.13,6.74-.63,6.83,6.61.06,4.53-.07,9.06.12,13.58.15,3.6,1.83,5.2,4.95,5.28,3.31.09,5.12-1.55,5.26-5.28.19-5.32.11-10.64.14-15.96.02-4.18.02-4.21,4.13-4.19,5.86.02,5.66-.79,5.62,5.74-.04,5.32.09,10.65-.26,15.95-.49,7.41-4.49,11.66-11.9,12.55-10.63,1.28-17.71-3.17-17.71-14.58,0-2.49,0-4.98,0-7.47,0,0-.01,0-.02,0Z"/><path class="b" d="m200.44,129.18c3.91-.02,7.35,1.2,10.33,3.76,1.72,1.48,2.28,2.78-.08,4.15-.78.45-1.53,1-2.18,1.63-1.59,1.52-3.01,1.66-4.61-.08-.99-1.07-2.21-1.98-3.85-1.94-1.1.02-2.05.33-2.45,1.45-.44,1.26-.02,2.27,1.18,2.83,2.27,1.04,4.61,1.93,6.86,3.01,5.65,2.71,7.61,5.75,7.04,10.74-.53,4.65-4.07,8.18-9.52,9.34-5.9,1.26-11.02-.2-15.33-4.47-1.37-1.36-1.47-2.43.33-3.45.79-.45,1.57-.96,2.23-1.57,1.84-1.7,3.44-1.7,5.14.28,1.05,1.21,2.54,1.99,4.21,2.01,1.43.01,2.74-.46,3.19-2.03.44-1.57-.26-2.66-1.69-3.27-1.57-.67-3.17-1.24-4.76-1.86-6.87-2.67-9.64-6.75-8.49-12.47.94-4.71,6.08-8.03,12.44-8.05Z"/><path class="b" d="m502.41,129.18c4.16-.01,7.79,1.31,10.84,4.19,1.42,1.34,1.48,2.4-.24,3.48-.77.48-1.52,1.02-2.17,1.64-1.76,1.69-3.42,2.08-5.12-.08-.34-.43-.88-.72-1.37-1.01-1.6-.93-3.42-1.41-4.51.42-1.23,2.07.41,2.99,2.14,3.71,2.73,1.13,5.53,2.09,8.04,3.7,5.87,3.75,6.48,11.22,1.3,15.88-5.73,5.15-16.77,4.24-21.66-1.69-1.18-1.43-1.02-2.34.49-3.25.78-.47,1.56-.96,2.23-1.57,1.82-1.65,3.43-1.82,5.14.22.87,1.03,2.14,1.72,3.53,1.95,1.73.29,3.25-.11,3.89-1.91.63-1.77-.43-2.8-1.93-3.43-2.4-1.02-4.89-1.86-7.23-3-3.1-1.51-5.34-3.77-5.83-7.42-.92-6.86,4.22-11.78,12.44-11.84Z"/><path class="b" d="m245.29,151.36c0-3.29-.06-6.57.02-9.86.05-2.06-.82-2.93-2.86-2.74-.45.04-.91,0-1.37,0-6.44-.02-6.4-.04-5.94-6.41.13-1.77.85-2.39,2.53-2.38,8.31.02,16.62.03,24.93,0,1.94,0,2.69.87,2.56,2.7-.03.45,0,.91,0,1.36q.02,4.74-4.87,4.74c-.46,0-.91,0-1.37,0q-3.87.02-3.89,4.04c0,5.78-.1,11.56.04,17.34.06,2.4-.51,3.5-3.19,3.43-7.99-.18-6.45.6-6.6-6.44-.04-1.93,0-3.85,0-5.78Z"/><path class="b" d="m408.3,146.59c0,4.75-.05,9.51.02,14.26.03,1.82-.57,2.59-2.52,2.71-7.47.47-7.47.53-7.47-6.94,0-7.7.07-15.4-.04-23.09-.04-2.51.53-3.7,3.39-3.61,7.56.25,6.53-.82,6.61,6.47.03,3.4,0,6.79,0,10.19Z"/></svg>